<svg xmlns="http://www.w3.org/2000/svg" version="1.1" xmlns:xlink="http://www.w3.org/1999/xlink" xmlns:svgjs="http://svgjs.dev/svgjs" width="1000" height="257" viewBox="0 0 1000 257"><g transform="matrix(1,0,0,1,-0.6060606060606233,0.20797453292283308)"><svg viewBox="0 0 396 102" data-background-color="#ffffff" preserveAspectRatio="xMidYMid meet" height="257" width="1000" xmlns="http://www.w3.org/2000/svg" xmlns:xlink="http://www.w3.org/1999/xlink"><g id="tight-bounds" transform="matrix(1,0,0,1,0.2400000000000091,-0.08254242162695391)"><svg viewBox="0 0 395.52 102.16508484325388" height="102.16508484325388" width="395.52"><g><svg viewBox="0 0 549.6141611541041 141.96849060821918" height="102.16508484325388" width="395.52"><g transform="matrix(1,0,0,1,154.09416115410414,45.3025357150685)"><svg viewBox="0 0 395.52 51.36341917808219" height="51.36341917808219" width="395.52"><g id="textblocktransform"><svg viewBox="0 0 395.52 51.36341917808219" height="51.36341917808219" width="395.52" id="textblock"><g><svg viewBox="0 0 395.52 51.36341917808219" height="51.36341917808219" width="395.52"><g transform="matrix(1,0,0,1,0,0)"><svg width="395.52" viewBox="-0.05000000447034836 -36.25 364.9700012207031 47.400001525878906" height="51.36341917808219" data-palette-color="#114783"><path d="M-0.05 0L12.8-33.85 20.15-33.85 32.55 0 24.2 0 21.7-8.15 10.75-8.15 8.15 0-0.05 0ZM12.65-14.25L19.85-14.25Q19.35-15.7 18.82-17.28 18.3-18.85 17.82-20.35 17.35-21.85 16.95-23.18 16.55-24.5 16.25-25.4L16.25-25.4Q15.95-24.45 15.55-23.13 15.15-21.8 14.68-20.3 14.2-18.8 13.68-17.25 13.15-15.7 12.65-14.25L12.65-14.25ZM51.95-32.95L48.15-28.95Q47.9-29.35 47.32-29.78 46.75-30.2 46-30.2L46-30.2Q44.85-30.2 44.05-29.43 43.25-28.65 43.25-27.2L43.25-27.2Q43.25-26.05 43.45-25.1L43.45-25.1 49.85-25.1 48.85-19.1 44.4-19.1 44.4-0.85Q44.4 2 43.52 3.95 42.65 5.9 41.3 7.25 39.95 8.6 38.27 9.5 36.6 10.4 35.05 11.15L35.05 11.15 31.45 5.3Q33.85 4.05 35.17 2.63 36.5 1.2 36.5-0.7L36.5-0.7 36.5-19.1 32.65-19.1 32.65-25.1 36.5-25.1Q36.2-25.85 36.02-26.65 35.85-27.45 35.85-28.35L35.85-28.35Q35.85-30.2 36.5-31.63 37.15-33.05 38.35-34.05 39.55-35.05 41.17-35.58 42.8-36.1 44.75-36.1L44.75-36.1Q47.5-36.1 49.12-35.2 50.75-34.3 51.95-32.95L51.95-32.95ZM53.7 8.65L55.55 2.55Q57.75 3.3 59.37 3.73 61 4.15 62.84 4.15L62.84 4.15Q64.84 4.15 66.07 3 67.3 1.85 67.3-0.3L67.3-0.3Q67.3-2.6 66.59-4.4L66.59-4.4Q65.75-2.15 64.09-0.93 62.45 0.3 59.8 0.3L59.8 0.3Q57.34 0.3 55.52-0.6 53.7-1.5 52.5-3.13 51.3-4.75 50.72-7.05 50.15-9.35 50.15-12.15L50.15-12.15Q50.15-15 51.07-17.45 52-19.9 53.65-21.68 55.3-23.45 57.59-24.45 59.9-25.45 62.7-25.45L62.7-25.45Q64.2-25.45 65.82-25.25 67.45-25.05 68.87-24.8 70.3-24.55 71.37-24.33 72.45-24.1 72.8-24L72.8-24 72.59-11.55Q72.59-9.95 72.87-8.58 73.15-7.2 73.47-5.88 73.8-4.55 74.09-3.15 74.4-1.75 74.4-0.15L74.4-0.15Q74.4 5.1 71.42 7.93 68.45 10.75 63.34 10.75L63.34 10.75Q61.05 10.75 58.55 10.2 56.05 9.65 53.7 8.65L53.7 8.65ZM61.09-5.5Q61.9-5.5 62.55-6.18 63.2-6.85 63.7-8 64.2-9.15 64.47-10.65 64.75-12.15 64.75-13.8L64.75-13.8 64.75-19.25Q64.4-19.4 63.77-19.53 63.15-19.65 62.7-19.65L62.7-19.65Q61.5-19.65 60.7-19.13 59.9-18.6 59.42-17.68 58.95-16.75 58.75-15.45 58.55-14.15 58.55-12.65L58.55-12.65Q58.55-11.25 58.59-9.98 58.65-8.7 58.92-7.7 59.2-6.7 59.7-6.1 60.2-5.5 61.09-5.5L61.09-5.5ZM86.49-36.25L86.49-23.2Q87.79-24.35 89.49-24.9 91.19-25.45 93.04-25.45L93.04-25.45Q96.94-25.45 98.59-23.1 100.24-20.75 100.24-16.75L100.24-16.75 100.24 0 92.29 0 92.29-15.6Q92.29-17.35 91.87-18.43 91.44-19.5 90.29-19.5L90.29-19.5Q89.64-19.5 88.97-19.07 88.29-18.65 87.74-17.82 87.19-17 86.84-15.83 86.49-14.65 86.49-13.2L86.49-13.2 86.49 0 78.59 0 78.59-34.9 86.49-36.25ZM126.69-24L126.69-12.05Q126.69-9.05 127.09-7.05 127.49-5.05 128.04-3.85L128.04-3.85Q128.64-2.4 129.44-1.6L129.44-1.6 123.09 0.4Q122.54-0.1 122.09-0.85L122.09-0.85Q121.69-1.5 121.31-2.43 120.94-3.35 120.69-4.6L120.69-4.6Q119.84-2.25 118.19-0.98 116.54 0.3 113.84 0.3L113.84 0.3Q111.39 0.3 109.56-0.6 107.74-1.5 106.54-3.13 105.34-4.75 104.77-7.05 104.19-9.35 104.19-12.15L104.19-12.15Q104.19-15 105.12-17.45 106.04-19.9 107.69-21.68 109.34-23.45 111.64-24.45 113.94-25.45 116.74-25.45L116.74-25.45Q118.29-25.45 120.04-25.23 121.79-25 123.24-24.73 124.69-24.45 125.67-24.23 126.64-24 126.69-24L126.69-24ZM115.14-5.5Q115.89-5.5 116.56-6.15 117.24-6.8 117.74-7.9 118.24-9 118.52-10.43 118.79-11.85 118.79-13.45L118.79-13.45 118.79-19.25Q118.44-19.4 117.81-19.53 117.19-19.65 116.74-19.65L116.74-19.65Q115.54-19.65 114.74-19.13 113.94-18.6 113.47-17.68 112.99-16.75 112.79-15.45 112.59-14.15 112.59-12.65L112.59-12.65Q112.59-11.25 112.64-9.98 112.69-8.7 112.97-7.7 113.24-6.7 113.74-6.1 114.24-5.5 115.14-5.5L115.14-5.5ZM154.29 0L146.34 0 146.34-15.6Q146.34-17.35 145.91-18.43 145.49-19.5 144.34-19.5L144.34-19.5Q142.94-19.5 141.74-17.68 140.54-15.85 140.54-12.55L140.54-12.55 140.54 0 132.64 0 132.64-13Q132.64-16 132.21-17.98 131.79-19.95 131.24-21.2L131.24-21.2Q130.64-22.6 129.89-23.45L129.89-23.45 136.24-25.45Q136.69-24.95 137.14-24.3L137.14-24.3Q137.54-23.75 137.91-22.88 138.29-22 138.54-20.9L138.54-20.9Q139.84-23.25 142.11-24.35 144.39-25.45 147.09-25.45L147.09-25.45Q150.99-25.45 152.64-23.08 154.29-20.7 154.29-16.75L154.29-16.75 154.29 0ZM172.73 0L172.73-33.85Q173.18-33.85 174.53-33.88 175.88-33.9 177.53-33.9 179.18-33.9 180.73-33.93 182.28-33.95 183.13-33.95L183.13-33.95Q189.53-33.95 192.73-31.5 195.93-29.05 195.93-24.25L195.93-24.25Q195.93-21.05 194.38-18.98 192.83-16.9 190.18-15.75L190.18-15.75Q191.68-14.9 192.83-13.5 193.98-12.1 195.03-10.13 196.08-8.15 197.16-5.6 198.23-3.05 199.53 0L199.53 0 190.68 0Q189.08-3.5 187.98-6.18 186.88-8.85 185.93-10.68 184.98-12.5 184.06-13.43 183.13-14.35 181.83-14.35L181.83-14.35 180.98-14.35 180.98 0 172.73 0ZM180.98-28.55L180.98-19.5 183.08-19.5Q184.83-19.5 186.06-20.58 187.28-21.65 187.28-23.95L187.28-23.95Q187.28-24.9 187.06-25.73 186.83-26.55 186.33-27.18 185.83-27.8 184.96-28.18 184.08-28.55 182.83-28.55L182.83-28.55 180.98-28.55ZM199.93-11.85Q199.93-15.2 200.91-17.78 201.88-20.35 203.61-22.08 205.33-23.8 207.63-24.7 209.93-25.6 212.63-25.6L212.63-25.6Q214.98-25.6 216.63-25.03 218.28-24.45 219.33-23.43 220.38-22.4 220.88-21.03 221.38-19.65 221.38-18.05L221.38-18.05Q221.38-16.25 220.48-14.65 219.58-13.05 217.91-11.83 216.23-10.6 213.86-9.8 211.48-9 208.48-8.75L208.48-8.75Q208.83-7.25 209.76-6.33 210.68-5.4 212.58-5.4L212.58-5.4Q213.68-5.4 214.93-5.65 216.18-5.9 217.23-6.2L217.23-6.2Q218.48-6.55 219.68-7L219.68-7 221.18-1.8Q219.83-1.15 218.23-0.65L218.23-0.65Q216.88-0.25 215.11 0.1 213.33 0.45 211.33 0.45L211.33 0.45Q208.28 0.45 206.11-0.45 203.93-1.35 202.56-2.95 201.18-4.55 200.56-6.83 199.93-9.1 199.93-11.85L199.93-11.85ZM211.63-19.95Q210.68-19.95 210.01-19.4 209.33-18.85 208.93-17.95 208.53-17.05 208.33-15.95 208.13-14.85 208.08-13.8L208.08-13.8Q209.58-13.85 210.61-14.25 211.63-14.65 212.28-15.25 212.93-15.85 213.23-16.55 213.53-17.25 213.53-17.85L213.53-17.85Q213.53-18.8 213.01-19.38 212.48-19.95 211.63-19.95L211.63-19.95ZM243.33-22.05L239.43-18Q238.83-18.7 238.18-19.2 237.53-19.7 236.53-19.7L236.53-19.7Q235.93-19.7 235.18-19.5 234.43-19.3 233.78-18.57 233.13-17.85 232.7-16.48 232.28-15.1 232.28-12.7L232.28-12.7Q232.28-10.35 232.75-8.93 233.23-7.5 233.95-6.75 234.68-6 235.55-5.75 236.43-5.5 237.23-5.5L237.23-5.5Q237.83-5.5 238.53-5.65 239.23-5.8 239.85-5.98 240.48-6.15 240.93-6.33 241.38-6.5 241.43-6.5L241.43-6.5 242.88-1.25 242.33-1Q241.78-0.7 240.8-0.38 239.83-0.05 238.45 0.2 237.08 0.45 235.43 0.45L235.43 0.45Q232.38 0.45 230.18-0.45 227.98-1.35 226.58-2.95 225.18-4.55 224.53-6.83 223.88-9.1 223.88-11.85L223.88-11.85Q223.88-15.2 224.8-17.78 225.73-20.35 227.35-22.1 228.98-23.85 231.2-24.73 233.43-25.6 236.03-25.6L236.03-25.6Q238.48-25.6 240.33-24.63 242.18-23.65 243.33-22.05L243.33-22.05ZM254.23-36.25L254.23-23.2Q255.53-24.35 257.23-24.9 258.93-25.45 260.78-25.45L260.78-25.45Q264.68-25.45 266.33-23.1 267.98-20.75 267.98-16.75L267.98-16.75 267.98 0 260.03 0 260.03-15.6Q260.03-17.35 259.6-18.43 259.18-19.5 258.03-19.5L258.03-19.5Q257.38-19.5 256.7-19.07 256.03-18.65 255.48-17.82 254.93-17 254.58-15.83 254.23-14.65 254.23-13.2L254.23-13.2 254.23 0 246.33 0 246.33-34.9 254.23-36.25ZM294.42-24L294.42-12.05Q294.42-9.05 294.82-7.05 295.22-5.05 295.77-3.85L295.77-3.85Q296.37-2.4 297.17-1.6L297.17-1.6 290.82 0.4Q290.27-0.1 289.82-0.85L289.82-0.85Q289.42-1.5 289.05-2.43 288.67-3.35 288.42-4.6L288.42-4.6Q287.57-2.25 285.92-0.98 284.27 0.3 281.57 0.3L281.57 0.3Q279.12 0.3 277.3-0.6 275.47-1.5 274.27-3.13 273.07-4.75 272.5-7.05 271.92-9.35 271.92-12.15L271.92-12.15Q271.92-15 272.85-17.45 273.77-19.9 275.42-21.68 277.07-23.45 279.37-24.45 281.67-25.45 284.47-25.45L284.47-25.45Q286.02-25.45 287.77-25.23 289.52-25 290.97-24.73 292.42-24.45 293.4-24.23 294.37-24 294.42-24L294.42-24ZM282.87-5.5Q283.62-5.5 284.3-6.15 284.97-6.8 285.47-7.9 285.97-9 286.25-10.43 286.52-11.85 286.52-13.45L286.52-13.45 286.52-19.25Q286.17-19.4 285.55-19.53 284.92-19.65 284.47-19.65L284.47-19.65Q283.27-19.65 282.47-19.13 281.67-18.6 281.2-17.68 280.72-16.75 280.52-15.45 280.32-14.15 280.32-12.65L280.32-12.65Q280.32-11.25 280.37-9.98 280.42-8.7 280.7-7.7 280.97-6.7 281.47-6.1 281.97-5.5 282.87-5.5L282.87-5.5ZM312.12-17.9Q311.57-17.9 310.92-17.6 310.27-17.3 309.67-16.68 309.07-16.05 308.67-15.08 308.27-14.1 308.27-12.75L308.27-12.75 308.27 0 300.37 0 300.37-13Q300.37-16 299.95-17.98 299.52-19.95 298.97-21.2L298.97-21.2Q298.37-22.6 297.62-23.45L297.62-23.45 303.97-25.45Q304.37-24.95 304.82-24.3L304.82-24.3Q305.17-23.75 305.57-22.9 305.97-22.05 306.22-20.95L306.22-20.95Q307.47-23.35 309.2-24.4 310.92-25.45 313.27-25.45L313.27-25.45Q314.32-25.45 315.15-25.28 315.97-25.1 316.52-24.9L316.52-24.9 314.47-17.35Q314.12-17.55 313.55-17.73 312.97-17.9 312.12-17.9L312.12-17.9ZM320.07 8.65L321.92 2.55Q324.12 3.3 325.74 3.73 327.37 4.15 329.22 4.15L329.22 4.15Q331.22 4.15 332.44 3 333.67 1.85 333.67-0.3L333.67-0.3Q333.67-2.6 332.97-4.4L332.97-4.4Q332.12-2.15 330.47-0.93 328.82 0.3 326.17 0.3L326.17 0.3Q323.72 0.3 321.89-0.6 320.07-1.5 318.87-3.13 317.67-4.75 317.09-7.05 316.52-9.35 316.52-12.15L316.52-12.15Q316.52-15 317.44-17.45 318.37-19.9 320.02-21.68 321.67-23.45 323.97-24.45 326.27-25.45 329.07-25.45L329.07-25.45Q330.57-25.45 332.19-25.25 333.82-25.05 335.24-24.8 336.67-24.55 337.74-24.33 338.82-24.1 339.17-24L339.17-24 338.97-11.55Q338.97-9.95 339.24-8.58 339.52-7.2 339.84-5.88 340.17-4.55 340.47-3.15 340.77-1.75 340.77-0.15L340.77-0.15Q340.77 5.1 337.79 7.93 334.82 10.75 329.72 10.75L329.72 10.75Q327.42 10.75 324.92 10.2 322.42 9.65 320.07 8.65L320.07 8.65ZM327.47-5.5Q328.27-5.5 328.92-6.18 329.57-6.85 330.07-8 330.57-9.15 330.84-10.65 331.12-12.15 331.12-13.8L331.12-13.8 331.12-19.25Q330.77-19.4 330.14-19.53 329.52-19.65 329.07-19.65L329.07-19.65Q327.87-19.65 327.07-19.13 326.27-18.6 325.79-17.68 325.32-16.75 325.12-15.45 324.92-14.15 324.92-12.65L324.92-12.65Q324.92-11.25 324.97-9.98 325.02-8.7 325.29-7.7 325.57-6.7 326.07-6.1 326.57-5.5 327.47-5.5L327.47-5.5ZM343.47-11.85Q343.47-15.2 344.44-17.78 345.42-20.35 347.14-22.08 348.87-23.8 351.17-24.7 353.47-25.6 356.17-25.6L356.17-25.6Q358.51-25.6 360.17-25.03 361.81-24.45 362.87-23.43 363.92-22.4 364.42-21.03 364.92-19.65 364.92-18.05L364.92-18.05Q364.92-16.25 364.01-14.65 363.12-13.05 361.44-11.83 359.76-10.6 357.39-9.8 355.01-9 352.01-8.75L352.01-8.75Q352.37-7.25 353.29-6.33 354.22-5.4 356.12-5.4L356.12-5.4Q357.22-5.4 358.47-5.65 359.72-5.9 360.76-6.2L360.76-6.2Q362.01-6.55 363.22-7L363.22-7 364.72-1.8Q363.37-1.15 361.76-0.65L361.76-0.65Q360.42-0.25 358.64 0.1 356.87 0.45 354.87 0.45L354.87 0.45Q351.81 0.45 349.64-0.45 347.47-1.35 346.09-2.95 344.72-4.55 344.09-6.83 343.47-9.1 343.47-11.85L343.47-11.85ZM355.17-19.95Q354.22-19.95 353.54-19.4 352.87-18.85 352.47-17.95 352.06-17.05 351.87-15.95 351.67-14.85 351.62-13.8L351.62-13.8Q353.12-13.85 354.14-14.25 355.17-14.65 355.81-15.25 356.47-15.85 356.76-16.55 357.06-17.25 357.06-17.85L357.06-17.85Q357.06-18.8 356.54-19.38 356.01-19.95 355.17-19.95L355.17-19.95Z" opacity="1" transform="matrix(1,0,0,1,0,0)" fill="#114783" class="undefined-text-0" data-fill-palette-color="primary" id="text-0"></path></svg></g></svg></g></svg></g></svg></g><g><svg viewBox="0 0 141.9684906082192 141.96849060821918" height="141.96849060821918" width="141.9684906082192"><g><svg></svg></g><g id="icon-0"><svg viewBox="0 0 141.9684906082192 141.96849060821918" height="141.96849060821918" width="141.9684906082192"><g><path xmlns="http://www.w3.org/2000/svg" d="M42.591 141.968c-23.522 0-42.591-19.068-42.591-42.59v-56.787c0-23.522 19.068-42.591 42.591-42.591h56.787c23.522 0 42.591 19.068 42.59 42.591v56.787c0 23.522-19.068 42.591-42.59 42.59z" fill="#1c4b82" fill-rule="nonzero" stroke="none" stroke-width="1" stroke-linecap="butt" stroke-linejoin="miter" stroke-miterlimit="10" stroke-dasharray="" stroke-dashoffset="0" font-family="none" font-weight="none" font-size="none" text-anchor="none" style="mix-blend-mode: normal" data-fill-palette-color="accent"></path></g><g transform="matrix(1,0,0,1,51.62490567571608,28.393698121643837)"><svg viewBox="0 0 38.718679256787055 85.18109436493151" height="85.18109436493151" width="38.718679256787055"><g><svg xmlns="http://www.w3.org/2000/svg" data-name="Layer 1" viewBox="75 45 50 110" x="0" y="0" height="85.18109436493151" width="38.718679256787055" class="icon-s-0" data-fill-palette-color="quaternary" id="s-0"><polygon points="95 155 105 145 105 125 95 135 95 155" fill="#ffffff" data-fill-palette-color="quaternary"></polygon><polygon points="108.11 56.21 96.89 45 91.89 54.14 103.11 65.35 108.11 56.21" fill="#ffffff" data-fill-palette-color="quaternary"></polygon><path d="M95 87.5c0 14.81 6.74 19.12 20 19.87v0.13H75v10h50v-20h0v-40A30 30 0 0 0 95 87.5Zm20 9.94c-8-0.36-15-2.12-15-9.94s7-14.59 15-17.87Z" fill="#ffffff" data-fill-palette-color="quaternary"></path></svg></g></svg></g></svg></g></svg></g></svg></g><defs></defs></svg><rect width="395.52" height="102.16508484325388" fill="none" stroke="none" visibility="hidden"></rect></g></svg></g></svg>